<svg width="64" height="64" viewBox="0 0 64 64" fill="none" xmlns="http://www.w3.org/2000/svg">
    <path fill-rule="evenodd" clip-rule="evenodd"
        d="M24.0166 17.6995C28.1209 15.5522 33.0357 18.6079 32.8914 23.2395L32.7554 27.609C32.7382 28.161 32.2767 28.5946 31.7247 28.5774C31.1727 28.5602 30.7391 28.0987 30.7563 27.5467L30.8924 23.1772C30.9886 20.0873 27.7028 18.0281 24.9437 19.4716C22.1911 20.9117 22.0186 24.7708 24.6298 26.4495L28.844 29.1588C29.3085 29.4575 29.443 30.0762 29.1443 30.5408C28.8457 31.0053 28.227 31.1398 27.7624 30.8412L23.5482 28.1319C19.6456 25.6228 19.9058 19.8502 24.0166 17.6995ZM45.9965 32.7316C46.1211 29.6427 42.8543 27.5537 40.0821 28.972L36.1797 30.9685C35.6881 31.22 35.0856 31.0254 34.834 30.5337C34.5825 30.042 34.7771 29.4395 35.2688 29.188L39.1712 27.1915C43.295 25.0817 48.1816 28.182 47.9949 32.8122C47.8081 37.4416 42.6884 40.1414 38.7474 37.7083L34.8334 35.2919C34.3635 35.0018 34.2177 34.3856 34.5078 33.9157C34.798 33.4458 35.4141 33.3 35.8841 33.5901L39.798 36.0065C42.4466 37.6417 45.8719 35.8212 45.9965 32.7316ZM29.3818 33.448C29.6423 33.935 29.4586 34.5409 28.9716 34.8014L24.1397 37.3859C21.4006 38.851 21.2633 42.7114 23.8899 44.3664C26.5233 46.0256 29.9652 44.2364 30.1182 41.148L30.3756 35.9505C30.403 35.3989 30.8723 34.9739 31.4239 35.0012C31.9755 35.0285 32.4005 35.4979 32.3732 36.0495L32.1158 41.2469C31.8866 45.8744 26.7423 48.5275 22.8237 46.0585C18.8983 43.5853 19.1054 37.8105 23.1964 35.6223L28.0284 33.0378C28.5154 32.7774 29.1213 32.961 29.3818 33.448Z"
        fill="black" />
    <path fill-rule="evenodd" clip-rule="evenodd"
        d="M32 11C20.402 11 11 20.402 11 32C11 43.598 20.402 53 32 53C43.598 53 53 43.598 53 32C53 20.402 43.598 11 32 11ZM9 32C9 19.2975 19.2975 9 32 9C44.7025 9 55 19.2975 55 32C55 44.7025 44.7025 55 32 55C19.2975 55 9 44.7025 9 32Z"
        fill="black" />
    <path fill-rule="evenodd" clip-rule="evenodd"
        d="M32 14C22.0589 14 14 22.0589 14 32C14 41.9411 22.0589 50 32 50C41.9411 50 50 41.9411 50 32C50 22.0589 41.9411 14 32 14ZM12 32C12 20.9543 20.9543 12 32 12C43.0457 12 52 20.9543 52 32C52 43.0457 43.0457 52 32 52C20.9543 52 12 43.0457 12 32Z"
        fill="black" />
    <path fill-rule="evenodd" clip-rule="evenodd"
        d="M39.3331 23.8007C38.143 22.7355 36.7207 21.9264 35.1527 21.4582L35.725 19.5418C37.5811 20.096 39.2621 21.0531 40.6669 22.3104L39.3331 23.8007ZM21.6257 28.3332C21.4174 28.9224 21.2579 29.5348 21.1521 30.1655C21.0522 30.7614 21 31.3742 21 32C21 32.7872 21.0825 33.554 21.2391 34.2927L19.2825 34.7073C19.0973 33.8332 19 32.9274 19 32C19 31.2629 19.0614 30.5394 19.1797 29.8345C19.3048 29.0886 19.4935 28.3641 19.74 27.6668L21.6257 28.3332ZM37.041 41.7797C37.8721 41.3504 38.6418 40.818 39.3331 40.1993L40.6669 41.6896C39.8508 42.42 38.9416 43.049 37.959 43.5566L37.041 41.7797ZM33.3763 42.9148C33.8444 42.8565 34.3031 42.7687 34.7507 42.6535L35.2493 44.5904C34.7196 44.7267 34.1769 44.8305 33.6237 44.8995L33.3763 42.9148Z"
        fill="black" />
    <path fill-rule="evenodd" clip-rule="evenodd"
        d="M32 29C30.3431 29 29 30.3431 29 32C29 33.6569 30.3431 35 32 35C33.6569 35 35 33.6569 35 32C35 30.3431 33.6569 29 32 29ZM27 32C27 29.2386 29.2386 27 32 27C34.7614 27 37 29.2386 37 32C37 34.7614 34.7614 37 32 37C29.2386 37 27 34.7614 27 32Z"
        fill="black" />
</svg>